version = 1
nColumns = 19
nRows = 27
inDegrees = yes
endheader 
time	r_ground_force_vx	r_ground_force_vy	r_ground_force_vz	r_ground_force_px	r_ground_force_py	r_ground_force_pz	l_ground_force_vx	l_ground_force_vy	l_ground_force_vz	l_ground_force_px	l_ground_force_py	l_ground_force_pz	r_ground_torque_x	r_ground_torque_y	r_ground_torque_z	l_ground_torque_x	l_ground_torque_y	l_ground_torque_z	
          0.12817941	        123.20062024	        805.37966451	        -25.78795395	          0.22953894	          0.00000000	          0.06099789	          0.00000000	          0.00000000	          0.00000000	          0.00000000	          0.00000000	          0.00000000	          0.00000000	         -2.84049842	          0.00000000	          0.00000000	          0.00000000	          0.00000000	
          0.12897439	        123.51756020	        795.61029347	        -25.65988684	          0.23004810	          0.00000000	          0.06139587	          0.00000000	          0.00000000	          0.00000000	          0.00000000	          0.00000000	          0.00000000	          0.00000000	         -2.76024076	          0.00000000	          0.00000000	          0.00000000	          0.00000000	
          0.13148618	        124.00116992	        764.73561410	        -25.27801910	          0.23171038	          0.00000000	          0.06271223	          0.00000000	          0.00000000	          0.00000000	          0.00000000	          0.00000000	          0.00000000	          0.00000000	         -2.48473446	          0.00000000	          0.00000000	          0.00000000	          0.00000000	
          0.13330659	        123.91231351	        742.39436226	        -25.03673535	          0.23296801	          0.00000000	          0.06372522	          0.00000000	          0.00000000	          0.00000000	          0.00000000	          0.00000000	          0.00000000	          0.00000000	         -2.26683565	          0.00000000	          0.00000000	          0.00000000	          0.00000000	
          0.13410156	        123.76218595	        732.65425586	        -24.94496090	          0.23353172	          0.00000000	          0.06418388	          0.00000000	          0.00000000	          0.00000000	          0.00000000	          0.00000000	          0.00000000	          0.00000000	         -2.16756032	          0.00000000	          0.00000000	          0.00000000	          0.00000000	
          0.13661336	        122.79331901	        702.02292140	        -24.73574408	          0.23537061	          0.00000000	          0.06569877	          0.00000000	          0.00000000	          0.00000000	          0.00000000	          0.00000000	          0.00000000	          0.00000000	         -1.83757819	          0.00000000	          0.00000000	          0.00000000	          0.00000000	
          0.13843377	        121.69216425	        679.98829566	        -24.65022233	          0.23676025	          0.00000000	          0.06685995	          0.00000000	          0.00000000	          0.00000000	          0.00000000	          0.00000000	          0.00000000	          0.00000000	         -1.58449662	          0.00000000	          0.00000000	          0.00000000	          0.00000000	
          0.13922874	        121.10927599	        670.40262371	        -24.64898684	          0.23738295	          0.00000000	          0.06738348	          0.00000000	          0.00000000	          0.00000000	          0.00000000	          0.00000000	          0.00000000	          0.00000000	         -1.47051172	          0.00000000	          0.00000000	          0.00000000	          0.00000000	
          0.14174053	        118.75050430	        640.17326956	        -24.89783090	          0.23941806	          0.00000000	          0.06909347	          0.00000000	          0.00000000	          0.00000000	          0.00000000	          0.00000000	          0.00000000	          0.00000000	         -1.09409893	          0.00000000	          0.00000000	          0.00000000	          0.00000000	
          0.14356094	        116.61642792	        618.34554113	        -25.23897391	          0.24096031	          0.00000000	          0.07038149	          0.00000000	          0.00000000	          0.00000000	          0.00000000	          0.00000000	          0.00000000	          0.00000000	         -0.80846751	          0.00000000	          0.00000000	          0.00000000	          0.00000000	
          0.14435592	        115.84293857	        608.60700978	        -25.36742065	          0.24166405	          0.00000000	          0.07096337	          0.00000000	          0.00000000	          0.00000000	          0.00000000	          0.00000000	          0.00000000	          0.00000000	         -0.68036992	          0.00000000	          0.00000000	          0.00000000	          0.00000000	
          0.14686771	        114.38823867	        576.56009195	        -25.69159949	          0.24405618	          0.00000000	          0.07291579	          0.00000000	          0.00000000	          0.00000000	          0.00000000	          0.00000000	          0.00000000	          0.00000000	         -0.27593885	          0.00000000	          0.00000000	          0.00000000	          0.00000000	
          0.14868812	        113.48986387	        552.83472401	        -25.96238976	          0.24593694	          0.00000000	          0.07443108	          0.00000000	          0.00000000	          0.00000000	          0.00000000	          0.00000000	          0.00000000	          0.00000000	          0.01953097	          0.00000000	          0.00000000	          0.00000000	          0.00000000	
          0.14948309	        113.02554442	        542.37230824	        -26.08174431	          0.24680141	          0.00000000	          0.07512550	          0.00000000	          0.00000000	          0.00000000	          0.00000000	          0.00000000	          0.00000000	          0.00000000	          0.15245380	          0.00000000	          0.00000000	          0.00000000	          0.00000000	
          0.15199489	        111.24871845	        508.97420208	        -26.41472924	          0.24973684	          0.00000000	          0.07745919	          0.00000000	          0.00000000	          0.00000000	          0.00000000	          0.00000000	          0.00000000	          0.00000000	          0.58792616	          0.00000000	          0.00000000	          0.00000000	          0.00000000	
          0.15381530	        109.56268037	        485.03511048	        -26.32253617	          0.25199173	          0.00000000	          0.07914552	          0.00000000	          0.00000000	          0.00000000	          0.00000000	          0.00000000	          0.00000000	          0.00000000	          0.88527723	          0.00000000	          0.00000000	          0.00000000	          0.00000000	
          0.15461027	        108.80209604	        475.55844281	        -25.87863054	          0.25288825	          0.00000000	          0.07966404	          0.00000000	          0.00000000	          0.00000000	          0.00000000	          0.00000000	          0.00000000	          0.00000000	          0.94347138	          0.00000000	          0.00000000	          0.00000000	          0.00000000	
          0.15712206	        106.87542744	        446.06718552	        -20.84485568	          0.25530821	          0.00000000	          0.08011240	          0.00000000	          0.00000000	          0.00000000	          0.00000000	          0.00000000	          0.00000000	          0.00000000	          0.74432651	          0.00000000	          0.00000000	          0.00000000	          0.00000000	
          0.15894247	        106.05084415	        423.18854168	        -16.89178485	          0.25730503	          0.00000000	          0.08050113	          0.00000000	          0.00000000	          0.00000000	          0.00000000	          0.00000000	          0.00000000	          0.00000000	          0.63123631	          0.00000000	          0.00000000	          0.00000000	          0.00000000	
          0.15973745	        106.05134665	        414.00114819	        -15.62692447	          0.25816440	          0.00000000	          0.08071062	          0.00000000	          0.00000000	          0.00000000	          0.00000000	          0.00000000	          0.00000000	          0.00000000	          0.59948096	          0.00000000	          0.00000000	          0.00000000	          0.00000000	
          0.16224924	        105.65395837	        391.41134675	        -14.90512338	          0.25934812	          0.00000000	          0.08158977	          0.00000000	          0.00000000	          0.00000000	          0.00000000	          0.00000000	          0.00000000	          0.00000000	          0.54376951	          0.00000000	          0.00000000	          0.00000000	          0.00000000	
          0.16406965	        105.56848557	        377.99204286	        -15.97240030	          0.25933232	          0.00000000	          0.08230213	          0.00000000	          0.00000000	          0.00000000	          0.00000000	          0.00000000	          0.00000000	          0.00000000	          0.50985996	          0.00000000	          0.00000000	          0.00000000	          0.00000000	
          0.16486462	        105.61003349	        371.67988456	        -16.25345776	          0.25938949	          0.00000000	          0.08259319	          0.00000000	          0.00000000	          0.00000000	          0.00000000	          0.00000000	          0.00000000	          0.00000000	          0.49531031	          0.00000000	          0.00000000	          0.00000000	          0.00000000	
          0.16737642	        104.73795582	        353.38471965	        -16.97324790	          0.25959847	          0.00000000	          0.08343917	          0.00000000	          0.00000000	          0.00000000	          0.00000000	          0.00000000	          0.00000000	          0.00000000	          0.45827682	          0.00000000	          0.00000000	          0.00000000	          0.00000000	
          0.16919683	        103.18957818	        341.42058122	        -17.39595472	          0.25974480	          0.00000000	          0.08399572	          0.00000000	          0.00000000	          0.00000000	          0.00000000	          0.00000000	          0.00000000	          0.00000000	          0.43966174	          0.00000000	          0.00000000	          0.00000000	          0.00000000	
          0.16999180	        102.03714069	        336.24962386	        -17.60297246	          0.25980081	          0.00000000	          0.08422560	          0.00000000	          0.00000000	          0.00000000	          0.00000000	          0.00000000	          0.00000000	          0.00000000	          0.43323317	          0.00000000	          0.00000000	          0.00000000	          0.00000000	
          0.17250359	         97.80057050	        319.06022826	        -18.03187935	          0.25998747	          0.00000000	          0.08493505	          0.00000000	          0.00000000	          0.00000000	          0.00000000	          0.00000000	          0.00000000	          0.00000000	          0.41158631	          0.00000000	          0.00000000	          0.00000000	          0.00000000	
